<?xml version="1.0" encoding="UTF-8"?>
<!DOCTYPE svg PUBLIC "-//W3C//DTD SVG 1.1//EN" "http://www.w3.org/Graphics/SVG/1.1/DTD/svg11.dtd">
<svg xmlns="http://www.w3.org/2000/svg" version="1.1" width="246px" height="101px" style="shape-rendering:geometricPrecision; text-rendering:geometricPrecision; image-rendering:optimizeQuality; fill-rule:evenodd; clip-rule:evenodd" xmlns:xlink="http://www.w3.org/1999/xlink">
<g><path style="opacity:0.069" fill="#f4f5f5" d="M 176.5,57.5 C 176.5,56.1667 176.5,54.8333 176.5,53.5C 177.651,47.6822 177.651,42.0155 176.5,36.5C 175.845,29.5206 172.845,23.8539 167.5,19.5C 163.194,15.8346 158.194,13.5013 152.5,12.5C 142.623,10.4366 134.623,13.4366 128.5,21.5C 123.291,26.305 121.458,32.305 123,39.5C 123.41,40.9007 123.91,42.234 124.5,43.5C 127.899,50.6517 133.233,54.3183 140.5,54.5C 140.833,54.5 141.167,54.5 141.5,54.5C 140.928,57.2436 139.262,58.0769 136.5,57C 121.105,49.5913 116.938,38.0913 124,22.5C 135.672,8.70043 149.506,6.20043 165.5,15C 178.559,26.7655 182.225,40.9322 176.5,57.5 Z"/></g>
<g><path style="opacity:0.997" fill="#768d8f" d="M 152.5,12.5 C 148.692,12.1632 145.026,12.6632 141.5,14C 145.573,15.0289 149.573,15.8622 153.5,16.5C 144.295,14.9438 136.629,17.6105 130.5,24.5C 129.833,23.5 129.167,22.5 128.5,21.5C 134.623,13.4366 142.623,10.4366 152.5,12.5 Z"/></g>
<g><path style="opacity:1" fill="#6b8587" d="M 152.5,12.5 C 158.194,13.5013 163.194,15.8346 167.5,19.5C 167.751,21.1703 168.418,22.6703 169.5,24C 168.956,24.7172 168.289,25.2172 167.5,25.5C 164.619,21.9559 160.952,19.6226 156.5,18.5C 155.71,17.5987 154.71,16.9321 153.5,16.5C 149.573,15.8622 145.573,15.0289 141.5,14C 145.026,12.6632 148.692,12.1632 152.5,12.5 Z"/></g>
<g><path style="opacity:0.965" fill="#798d8f" d="M 157.5,26.5 C 162.637,30.8034 165.304,36.3034 165.5,43C 165.167,44.8333 164.833,46.6667 164.5,48.5C 164.396,42.5479 162.729,37.2146 159.5,32.5C 154.744,26.679 148.744,25.0123 141.5,27.5C 141.158,26.6618 140.492,26.3284 139.5,26.5C 141.607,24.3485 144.274,23.3485 147.5,23.5C 151.02,23.9298 154.354,24.9298 157.5,26.5 Z"/></g>
<g><path style="opacity:0.071" fill="#f3f4f5" d="M 94.5,35.5 C 93.8505,33.5648 93.5172,31.5648 93.5,29.5C 91.8333,29.5 90.1667,29.5 88.5,29.5C 87.8413,32.4552 87.5079,35.4552 87.5,38.5C 86.325,45.7208 84.9917,53.0541 83.5,60.5C 82.0678,57.6727 81.4012,54.6727 81.5,51.5C 82.2216,51.9175 82.7216,52.5842 83,53.5C 84.0546,45.1171 85.388,36.7838 87,28.5C 89.3806,27.565 91.8806,27.2317 94.5,27.5C 95.2583,30.3519 95.2583,33.0185 94.5,35.5 Z"/></g>
<g><path style="opacity:1" fill="#6c8588" d="M 128.5,21.5 C 129.167,22.5 129.833,23.5 130.5,24.5C 129.227,26.7128 128.227,29.0462 127.5,31.5C 127.131,35.7675 126.131,39.7675 124.5,43.5C 123.91,42.234 123.41,40.9007 123,39.5C 121.458,32.305 123.291,26.305 128.5,21.5 Z"/></g>
<g><path style="opacity:0.988" fill="#7c8f90" d="M 139.5,26.5 C 140.492,26.3284 141.158,26.6618 141.5,27.5C 137.276,29.9593 135.776,33.626 137,38.5C 139.559,41.5314 142.726,43.6981 146.5,45C 152.224,52.4969 151.557,59.4969 144.5,66C 141.646,67.3965 138.98,68.8965 136.5,70.5C 134.972,70.4827 134.472,69.816 135,68.5C 141.925,65.9089 146.425,61.0755 148.5,54C 148.375,52.3732 147.875,50.8732 147,49.5C 143.778,46.612 140.278,44.112 136.5,42C 131.944,35.6126 132.944,30.446 139.5,26.5 Z"/></g>
<g><path style="opacity:0.086" fill="#f0f1f2" d="M 159.5,32.5 C 158.833,32.5 158.5,32.8333 158.5,33.5C 153.188,27.0032 147.021,26.0032 140,30.5C 138.41,32.6498 137.743,34.9832 138,37.5C 142.095,39.797 145.928,42.4636 149.5,45.5C 154.593,56.0573 151.926,64.224 141.5,70C 140.207,70.49 138.873,70.6567 137.5,70.5C 137.167,70.5 136.833,70.5 136.5,70.5C 138.98,68.8965 141.646,67.3965 144.5,66C 151.557,59.4969 152.224,52.4969 146.5,45C 142.726,43.6981 139.559,41.5314 137,38.5C 135.776,33.626 137.276,29.9593 141.5,27.5C 148.744,25.0123 154.744,26.679 159.5,32.5 Z"/></g>
<g><path style="opacity:0.069" fill="#f4f5f5" d="M 156.5,18.5 C 160.952,19.6226 164.619,21.9559 167.5,25.5C 169.94,29.1485 171.607,33.1485 172.5,37.5C 173.546,49.7599 170.713,61.0933 164,71.5C 162.669,73.9962 160.836,75.9962 158.5,77.5C 158.5,77.1667 158.5,76.8333 158.5,76.5C 161.911,70.6804 165.078,64.6804 168,58.5C 171.292,49.1406 171.292,39.8073 168,30.5C 165.259,25.5899 161.425,21.9232 156.5,19.5C 156.5,19.1667 156.5,18.8333 156.5,18.5 Z"/></g>
<g><path style="opacity:0.068" fill="#eff1f1" d="M 157.5,25.5 C 159.716,26.2026 161.549,27.5359 163,29.5C 166.628,35.3758 167.961,41.7091 167,48.5C 165.301,49.4061 163.467,49.7394 161.5,49.5C 161.766,43.9029 160.766,38.5696 158.5,33.5C 158.5,32.8333 158.833,32.5 159.5,32.5C 162.729,37.2146 164.396,42.5479 164.5,48.5C 164.833,46.6667 165.167,44.8333 165.5,43C 165.304,36.3034 162.637,30.8034 157.5,26.5C 157.5,26.1667 157.5,25.8333 157.5,25.5 Z"/></g>
<g><path style="opacity:1" fill="#6c8689" d="M 167.5,19.5 C 172.845,23.8539 175.845,29.5206 176.5,36.5C 177.15,52.0727 175.816,52.406 172.5,37.5C 171.607,33.1485 169.94,29.1485 167.5,25.5C 168.289,25.2172 168.956,24.7172 169.5,24C 168.418,22.6703 167.751,21.1703 167.5,19.5 Z"/></g>
<g><path style="opacity:0.073" fill="#f4f5f5" d="M 109.5,46.5 C 108.076,44.4855 107.41,42.1522 107.5,39.5C 105.856,39.2865 104.356,39.6198 103,40.5C 101.536,50.463 100.203,60.463 99,70.5C 98.6667,71.1667 98.3333,71.8333 98,72.5C 97.8171,69.6353 97.3171,66.9686 96.5,64.5C 96.5,63.1667 96.5,61.8333 96.5,60.5C 96.5,59.1667 96.5,57.8333 96.5,56.5C 97.3019,57.9516 97.8019,59.6183 98,61.5C 99.7178,54.606 100.718,47.606 101,40.5C 102.755,37.6616 105.088,36.995 108,38.5C 109.079,41.0627 109.579,43.7294 109.5,46.5 Z"/></g>
<g><path style="opacity:0.075" fill="#edefef" d="M 99.5,79.5 C 101.047,70.15 102.714,60.8167 104.5,51.5C 104.5,52.5 104.5,53.5 104.5,54.5C 103.995,62.5251 103.162,70.5251 102,78.5C 99.8143,83.3469 97.1477,83.6802 94,79.5C 93.2796,68.2417 91.7796,57.2417 89.5,46.5C 89.1667,46.5 88.8333,46.5 88.5,46.5C 88.5,45.5 88.5,44.5 88.5,43.5C 89.0841,40.5274 89.7508,37.5274 90.5,34.5C 91.1924,35.0253 91.6924,35.6919 92,36.5C 93.4854,50.8086 94.8188,65.142 96,79.5C 97.2917,80.7911 98.4583,80.7911 99.5,79.5 Z"/></g>
<g><path style="opacity:0.054" fill="#f5f6f6" d="M 81.5,50.5 C 80.8333,48.8333 80.1667,47.1667 79.5,45.5C 78.4151,43.4178 76.9151,43.0844 75,44.5C 74.1536,49.9157 72.9869,55.249 71.5,60.5C 70.5344,58.604 70.2011,56.604 70.5,54.5C 71.7479,51.0584 72.5812,47.3917 73,43.5C 75.1675,41.5356 77.5008,41.2022 80,42.5C 81.2525,45.0135 81.7525,47.6802 81.5,50.5 Z"/></g>
<g><path style="opacity:0.06" fill="#f1f3f3" d="M 153.5,16.5 C 154.71,16.9321 155.71,17.5987 156.5,18.5C 156.5,18.8333 156.5,19.1667 156.5,19.5C 143.85,15.8731 134.683,19.8731 129,31.5C 127.782,37.9887 129.949,43.1553 135.5,47C 139.841,48.1223 141.841,50.6223 141.5,54.5C 141.167,54.5 140.833,54.5 140.5,54.5C 140.719,53.325 140.386,52.325 139.5,51.5C 130.372,47.9111 126.372,41.2444 127.5,31.5C 128.227,29.0462 129.227,26.7128 130.5,24.5C 136.629,17.6105 144.295,14.9438 153.5,16.5 Z"/></g>
<g><path style="opacity:0.988" fill="#7b9092" d="M 109.5,46.5 C 109.5,46.8333 109.5,47.1667 109.5,47.5C 109.137,52.7685 109.971,57.7685 112,62.5C 112.757,60.6854 113.59,59.0188 114.5,57.5C 114.328,58.4916 114.662,59.1583 115.5,59.5C 114.578,63.1119 113.911,66.7785 113.5,70.5C 112.167,70.5 110.833,70.5 109.5,70.5C 108.808,62.4399 107.641,54.4399 106,46.5C 104.731,47.9047 104.231,49.5714 104.5,51.5C 102.714,60.8167 101.047,70.15 99.5,79.5C 99.5,77.5 99.5,75.5 99.5,73.5C 98.5,73.5 97.5,73.5 96.5,73.5C 96.5,70.5 96.5,67.5 96.5,64.5C 97.3171,66.9686 97.8171,69.6353 98,72.5C 98.3333,71.8333 98.6667,71.1667 99,70.5C 100.203,60.463 101.536,50.463 103,40.5C 104.356,39.6198 105.856,39.2865 107.5,39.5C 107.41,42.1522 108.076,44.4855 109.5,46.5 Z"/></g>
<g><path style="opacity:0.231" fill="#e3e6e6" d="M 94.5,36.5 C 96.2655,42.9089 96.9322,49.5756 96.5,56.5C 96.5,57.8333 96.5,59.1667 96.5,60.5C 95.5079,52.6753 94.8412,44.6753 94.5,36.5 Z"/></g>
<g><path style="opacity:0.065" fill="#f3f4f4" d="M 109.5,47.5 C 110.194,50.4213 111.027,53.4213 112,56.5C 112.511,54.1218 113.178,51.7885 114,49.5C 116.075,47.3517 118.408,47.0183 121,48.5C 122.252,51.0135 122.752,53.6802 122.5,56.5C 121.073,54.8516 120.24,52.8516 120,50.5C 117.546,48.987 115.879,49.6537 115,52.5C 114.506,54.1341 114.34,55.8008 114.5,57.5C 113.59,59.0188 112.757,60.6854 112,62.5C 109.971,57.7685 109.137,52.7685 109.5,47.5 Z"/></g>
<g><path style="opacity:0.064" fill="#f6f7f7" d="M 157.5,25.5 C 157.5,25.8333 157.5,26.1667 157.5,26.5C 154.354,24.9298 151.02,23.9298 147.5,23.5C 144.274,23.3485 141.607,24.3485 139.5,26.5C 132.944,30.446 131.944,35.6126 136.5,42C 140.278,44.112 143.778,46.612 147,49.5C 147.875,50.8732 148.375,52.3732 148.5,54C 146.425,61.0755 141.925,65.9089 135,68.5C 134.472,69.816 134.972,70.4827 136.5,70.5C 136.833,70.5 137.167,70.5 137.5,70.5C 136.686,72.2726 135.352,72.7726 133.5,72C 132.594,70.3005 132.261,68.4672 132.5,66.5C 139.517,64.9841 144.183,60.8174 146.5,54C 146.122,52.3651 145.456,50.8651 144.5,49.5C 140.174,47.0922 136.341,44.0922 133,40.5C 130.616,31.1084 134.116,24.9418 143.5,22C 148.899,20.7448 153.566,21.9114 157.5,25.5 Z"/></g>
<g><path style="opacity:0.98" fill="#7b8f91" d="M 79.5,45.5 C 79.7845,47.4147 79.4511,49.0813 78.5,50.5C 78.2172,49.7109 77.7172,49.0442 77,48.5C 75.8927,53.4768 74.8927,58.4768 74,63.5C 72.6439,64.3802 71.1439,64.7135 69.5,64.5C 68.5,60.5 67.5,56.5 66.5,52.5C 68.1993,52.5271 69.5326,53.1938 70.5,54.5C 70.2011,56.604 70.5344,58.604 71.5,60.5C 72.9869,55.249 74.1536,49.9157 75,44.5C 76.9151,43.0844 78.4151,43.4178 79.5,45.5 Z"/></g>
<g><path style="opacity:1" fill="#799093" d="M 127.5,31.5 C 126.372,41.2444 130.372,47.9111 139.5,51.5C 140.386,52.325 140.719,53.325 140.5,54.5C 133.233,54.3183 127.899,50.6517 124.5,43.5C 126.131,39.7675 127.131,35.7675 127.5,31.5 Z"/></g>
<g><path style="opacity:0.998" fill="#6f888b" d="M 176.5,36.5 C 177.651,42.0155 177.651,47.6822 176.5,53.5C 174.109,64.2264 169.109,73.5597 161.5,81.5C 161.5,79.5 160.5,78.5 158.5,78.5C 158.5,78.1667 158.5,77.8333 158.5,77.5C 160.836,75.9962 162.669,73.9962 164,71.5C 170.713,61.0933 173.546,49.7599 172.5,37.5C 175.816,52.406 177.15,52.0727 176.5,36.5 Z"/></g>
<g><path style="opacity:0.078" fill="#f3f4f4" d="M 115.5,59.5 C 115.848,57.2872 116.681,55.2872 118,53.5C 121.48,64.6153 124.147,75.9486 126,87.5C 130.026,94.8743 136.192,97.541 144.5,95.5C 145.167,95.5 145.833,95.5 146.5,95.5C 140.427,97.1366 134.427,96.6366 128.5,94C 126.383,92.2691 124.883,90.1024 124,87.5C 122.485,78.6793 120.485,70.0127 118,61.5C 117.667,61.1667 117.333,60.8333 117,60.5C 116.466,64.3048 115.466,67.9714 114,71.5C 110.592,73.2233 108.259,72.2233 107,68.5C 106.971,63.5424 106.138,58.8757 104.5,54.5C 104.5,53.5 104.5,52.5 104.5,51.5C 104.231,49.5714 104.731,47.9047 106,46.5C 107.641,54.4399 108.808,62.4399 109.5,70.5C 110.833,70.5 112.167,70.5 113.5,70.5C 113.911,66.7785 114.578,63.1119 115.5,59.5 Z"/></g>
<g><path style="opacity:0.069" fill="#f3f4f4" d="M 88.5,46.5 C 88.8333,46.5 89.1667,46.5 89.5,46.5C 89.4654,53.3067 88.4654,59.9734 86.5,66.5C 84.1667,69.1667 81.8333,69.1667 79.5,66.5C 78.7475,62.8085 77.9142,59.1418 77,55.5C 76.461,58.5285 75.7943,61.5285 75,64.5C 72.6667,67.1667 70.3333,67.1667 68,64.5C 65.6474,59.9238 64.814,55.2571 65.5,50.5C 68.9496,49.7564 70.6162,51.0897 70.5,54.5C 69.5326,53.1938 68.1993,52.5271 66.5,52.5C 67.5,56.5 68.5,60.5 69.5,64.5C 71.1439,64.7135 72.6439,64.3802 74,63.5C 74.8927,58.4768 75.8927,53.4768 77,48.5C 77.7172,49.0442 78.2172,49.7109 78.5,50.5C 79.4294,55.4643 80.2627,60.4643 81,65.5C 82.0495,66.5171 83.2161,66.6838 84.5,66C 86.5285,59.6678 87.8618,53.1678 88.5,46.5 Z"/></g>
<g><path style="opacity:0.965" fill="#7f9396" d="M 87.5,38.5 C 87.2155,40.4147 87.5489,42.0813 88.5,43.5C 88.5,44.5 88.5,45.5 88.5,46.5C 87.8618,53.1678 86.5285,59.6678 84.5,66C 83.2161,66.6838 82.0495,66.5171 81,65.5C 80.2627,60.4643 79.4294,55.4643 78.5,50.5C 79.4511,49.0813 79.7845,47.4147 79.5,45.5C 80.1667,47.1667 80.8333,48.8333 81.5,50.5C 81.5,50.8333 81.5,51.1667 81.5,51.5C 81.4012,54.6727 82.0678,57.6727 83.5,60.5C 84.9917,53.0541 86.325,45.7208 87.5,38.5 Z"/></g>
<g><path style="opacity:0.101" fill="#f9fafa" d="M 122.5,56.5 C 124.04,58.8383 124.706,61.5049 124.5,64.5C 123.232,62.0948 122.565,59.4282 122.5,56.5 Z"/></g>
<g><path style="opacity:0.937" fill="#7e9294" d="M 122.5,56.5 C 122.565,59.4282 123.232,62.0948 124.5,64.5C 124.928,71.7397 126.428,78.7397 129,85.5C 131.978,89.988 136.145,91.6547 141.5,90.5C 139.502,91.1475 137.502,91.9808 135.5,93C 138.278,94.3919 141.278,94.8919 144.5,94.5C 144.5,94.8333 144.5,95.1667 144.5,95.5C 136.192,97.541 130.026,94.8743 126,87.5C 124.147,75.9486 121.48,64.6153 118,53.5C 116.681,55.2872 115.848,57.2872 115.5,59.5C 114.662,59.1583 114.328,58.4916 114.5,57.5C 114.34,55.8008 114.506,54.1341 115,52.5C 115.879,49.6537 117.546,48.987 120,50.5C 120.24,52.8516 121.073,54.8516 122.5,56.5 Z"/></g>
<g><path style="opacity:0.976" fill="#788d8f" d="M 94.5,35.5 C 94.5,35.8333 94.5,36.1667 94.5,36.5C 94.8412,44.6753 95.5079,52.6753 96.5,60.5C 96.5,61.8333 96.5,63.1667 96.5,64.5C 96.5,67.5 96.5,70.5 96.5,73.5C 97.5,73.5 98.5,73.5 99.5,73.5C 99.5,75.5 99.5,77.5 99.5,79.5C 98.4583,80.7911 97.2917,80.7911 96,79.5C 94.8188,65.142 93.4854,50.8086 92,36.5C 91.6924,35.6919 91.1924,35.0253 90.5,34.5C 89.7508,37.5274 89.0841,40.5274 88.5,43.5C 87.5489,42.0813 87.2155,40.4147 87.5,38.5C 87.5079,35.4552 87.8413,32.4552 88.5,29.5C 90.1667,29.5 91.8333,29.5 93.5,29.5C 93.5172,31.5648 93.8505,33.5648 94.5,35.5 Z"/></g>
<g><path style="opacity:0.071" fill="#f4f5f5" d="M 124.5,64.5 C 126.225,69.9499 127.725,75.6166 129,81.5C 132.695,88.422 138.195,90.2554 145.5,87C 150.33,83.9916 154.664,80.4916 158.5,76.5C 158.5,76.8333 158.5,77.1667 158.5,77.5C 158.5,77.8333 158.5,78.1667 158.5,78.5C 154.018,84.2355 148.352,88.2355 141.5,90.5C 136.145,91.6547 131.978,89.988 129,85.5C 126.428,78.7397 124.928,71.7397 124.5,64.5 Z"/></g>
<g><path style="opacity:0.067" fill="#eceeee" d="M 176.5,53.5 C 176.5,54.8333 176.5,56.1667 176.5,57.5C 173.298,70.3916 166.632,81.2249 156.5,90C 153.268,92.1139 149.935,93.9472 146.5,95.5C 145.833,95.5 145.167,95.5 144.5,95.5C 144.5,95.1667 144.5,94.8333 144.5,94.5C 151.595,92.0767 157.261,87.7434 161.5,81.5C 169.109,73.5597 174.109,64.2264 176.5,53.5 Z"/></g>
<g><path style="opacity:1" fill="#6a8588" d="M 158.5,78.5 C 160.5,78.5 161.5,79.5 161.5,81.5C 157.261,87.7434 151.595,92.0767 144.5,94.5C 141.278,94.8919 138.278,94.3919 135.5,93C 137.502,91.9808 139.502,91.1475 141.5,90.5C 148.352,88.2355 154.018,84.2355 158.5,78.5 Z"/></g>
</svg>
