<svg xmlns="http://www.w3.org/2000/svg" xmlns:v="https://svgstorm.com"
viewBox = "0 0 246 101"
width="246"
height="101">
<g fill="None" fill-opacity="0.0" stroke="#000000" stroke-opacity="0.00" stroke-width="0.3"><path d="
M 0.00 101.00 
L 246.00 101.00
L 246.00 0.00
L 0.00 0.00
L 0.00 101.00
M 66.00 53.00 
C 68.37 49.25 68.34 52.47 71.00 53.00
C 74.39 52.95 69.53 45.86 75.70 42.70 C 81.87 39.53 82.46 49.91 83.00 54.00
C 87.74 46.30 80.74 26.00 95.00 28.00
C 93.93 30.71 97.81 34.02 95.00 36.00
C 95.25 36.25 95.00 37.00 95.00 37.00
C 97.56 42.86 97.00 50.15 97.00 57.00
C 97.16 58.05 98.18 61.11 99.00 62.00
C 98.08 55.77 102.26 51.40 101.00 45.00 C 99.74 38.60 107.84 35.53 109.32 41.68 C 110.80 47.83 109.88 52.05 113.00 57.00
C 113.02 44.13 123.14 48.09 123.78 57.22 C 124.42 66.35 128.00 72.42 128.99 81.01 C 129.98 89.59 141.93 90.88 147.69 86.69 C 153.46 82.51 158.64 77.51 162.25 71.25 C 165.86 65.00 169.55 58.45 170.93 50.93 C 172.30 43.41 170.64 32.95 165.75 27.25 C 160.85 21.56 153.06 16.90 145.00 19.00 C 136.94 21.10 131.60 23.92 129.08 33.08 C 126.55 42.23 135.34 43.88 140.75 50.25 C 146.15 56.63 134.87 59.13 129.30 52.70 C 123.74 46.26 119.77 40.62 121.33 32.33 C 122.89 24.04 126.45 18.65 133.25 14.25 C 140.04 9.85 149.33 9.11 156.67 11.33 C 164.02 13.54 168.63 16.99 173.75 23.25 C 178.88 29.51 178.94 38.88 179.00 47.00 C 179.06 55.12 176.07 63.52 172.25 70.25 C 168.43 76.98 166.12 81.64 160.25 87.25 C 154.37 92.85 149.38 96.26 141.00 97.00 C 132.62 97.74 125.29 93.61 124.01 84.99 C 122.73 76.38 120.65 69.08 118.00 61.00
C 116.65 64.00 115.82 76.11 109.78 72.22 C 103.73 68.33 109.04 60.15 106.00 55.00
C 102.21 63.40 106.26 68.57 103.00 78.00 C 99.74 87.43 92.24 79.12 94.00 71.00 C 95.76 62.88 89.72 55.16 91.00 47.00
C 89.91 53.24 88.02 60.14 88.00 67.00
C 79.04 73.24 79.34 61.18 77.00 56.00
C 78.41 60.19 74.47 69.55 69.78 66.22 C 65.09 62.90 66.23 57.12 66.00 53.00
M 162.00 50.00 
C 165.20 40.13 153.04 21.13 141.93 29.93 C 130.81 38.72 154.28 44.60 153.00 55.00 C 151.71 65.41 135.84 79.31 133.00 67.00
C 140.37 68.42 153.06 52.47 143.70 48.30 C 134.35 44.12 129.31 36.64 135.75 27.75 C 142.20 18.87 154.06 21.69 160.75 27.25 C 167.43 32.82 172.91 49.54 162.00 50.00 Z"/>
</g>
<g fill="None" fill-opacity="0.0" stroke="#EFF1F1" stroke-opacity="0.23" stroke-width="0.3"><path d="
M 97.00 57.00 
C 97.00 58.33 97.01 59.67 97.00 61.00
C 96.98 65.28 97.79 68.80 98.00 73.00
C 104.23 64.09 98.41 47.00 107.00 40.00
C 110.40 47.54 109.36 56.24 112.00 64.00
C 114.57 53.83 119.14 46.45 122.00 58.00 C 124.85 69.55 125.38 74.02 128.77 84.23 C 132.16 94.44 144.37 91.71 150.75 86.75 C 157.14 81.80 161.81 76.24 165.92 68.92 C 170.04 61.61 173.18 52.99 173.00 44.00 C 172.82 35.01 170.16 27.01 162.75 21.25 C 155.34 15.49 144.56 16.16 136.92 19.92 C 129.29 23.68 124.92 36.45 129.31 42.69 C 133.69 48.94 144.83 57.11 134.92 54.08 C 125.01 51.04 123.39 42.03 123.00 34.00 C 122.61 25.96 130.29 18.95 137.08 15.08 C 143.87 11.20 156.16 11.02 163.03 15.97 C 169.90 20.93 174.53 26.96 176.93 35.07 C 179.32 43.19 177.47 54.53 174.22 62.22 C 170.98 69.92 168.17 76.67 161.75 82.75 C 155.34 88.84 151.48 94.47 141.99 95.99 C 132.51 97.51 125.53 88.98 125.01 79.99 C 124.48 71.00 120.63 61.98 118.00 54.00
C 114.45 59.04 117.78 70.17 110.00 71.00
C 108.60 64.79 108.96 58.07 107.00 52.00
C 106.69 51.76 105.31 51.76 105.00 52.00
C 102.78 61.22 104.59 67.80 101.07 77.07 C 97.55 86.35 94.28 69.21 95.00 62.00 C 95.72 54.79 91.27 42.77 92.00 35.00
C 86.63 44.67 91.22 50.87 87.00 62.00 C 82.79 73.14 78.67 55.26 78.00 49.00
C 74.49 52.30 77.60 61.49 73.69 64.69 C 69.79 67.90 65.91 54.72 68.00 53.00
C 71.37 54.30 69.80 59.10 72.00 61.00
C 76.03 58.88 71.82 45.15 77.25 44.25 C 82.68 43.35 81.01 58.14 83.00 61.00
C 87.63 53.20 86.55 39.95 89.00 30.00
C 93.13 28.73 94.84 32.53 94.00 36.00
C 94.00 35.96 95.00 36.00 95.00 36.00
C 97.81 34.02 93.93 30.71 95.00 28.00
C 80.74 26.00 87.74 46.30 83.00 54.00
C 82.46 49.91 81.87 39.53 75.70 42.70 C 69.53 45.86 74.39 52.95 71.00 53.00
C 69.23 53.03 67.92 51.16 66.00 53.00
C 66.23 57.12 65.09 62.90 69.78 66.22 C 74.47 69.55 78.41 60.19 77.00 56.00
C 79.34 61.18 79.04 73.24 88.00 67.00
C 88.02 60.14 89.91 53.24 91.00 47.00
C 89.72 55.16 95.76 62.88 94.00 71.00 C 92.24 79.12 99.74 87.43 103.00 78.00 C 106.26 68.57 102.21 63.40 106.00 55.00
C 109.04 60.15 103.73 68.33 109.78 72.22 C 115.82 76.11 116.65 64.00 118.00 61.00
C 120.65 69.08 122.73 76.38 124.01 84.99 C 125.29 93.61 132.62 97.74 141.00 97.00 C 149.38 96.26 154.37 92.85 160.25 87.25 C 166.12 81.64 168.43 76.98 172.25 70.25 C 176.07 63.52 179.06 55.12 179.00 47.00 C 178.94 38.88 178.88 29.51 173.75 23.25 C 168.63 16.99 164.02 13.54 156.67 11.33 C 149.33 9.11 140.04 9.85 133.25 14.25 C 126.45 18.65 122.89 24.04 121.33 32.33 C 119.77 40.62 123.74 46.26 129.30 52.70 C 134.87 59.13 146.15 56.63 140.75 50.25 C 135.34 43.88 126.55 42.23 129.08 33.08 C 131.60 23.92 136.94 21.10 145.00 19.00 C 153.06 16.90 160.85 21.56 165.75 27.25 C 170.64 32.95 172.30 43.41 170.93 50.93 C 169.55 58.45 165.86 65.00 162.25 71.25 C 158.64 77.51 153.46 82.51 147.69 86.69 C 141.93 90.88 129.98 89.59 128.99 81.01 C 128.00 72.42 124.42 66.35 123.78 57.22 C 123.14 48.09 113.02 44.13 113.00 57.00
C 109.88 52.05 110.80 47.83 109.32 41.68 C 107.84 35.53 99.74 38.60 101.00 45.00 C 102.26 51.40 98.08 55.77 99.00 62.00
C 98.18 61.11 97.16 58.05 97.00 57.00 Z"/>
</g>
<g fill="None" fill-opacity="0.0" stroke="#778D8F" stroke-opacity="0.93" stroke-width="0.3"><path d="
M 97.00 61.00 
C 96.26 54.90 94.97 47.65 95.00 41.00
C 94.82 39.83 94.18 37.71 94.00 36.00
C 94.84 32.53 93.13 28.73 89.00 30.00
C 86.55 39.95 87.63 53.20 83.00 61.00
C 81.01 58.14 82.68 43.35 77.25 44.25 C 71.82 45.15 76.03 58.88 72.00 61.00
C 69.80 59.10 71.37 54.30 68.00 53.00
C 65.91 54.72 69.79 67.90 73.69 64.69 C 77.60 61.49 74.49 52.30 78.00 49.00
C 78.67 55.26 82.79 73.14 87.00 62.00 C 91.22 50.87 86.63 44.67 92.00 35.00
C 91.27 42.77 95.72 54.79 95.00 62.00 C 94.28 69.21 97.55 86.35 101.07 77.07 C 104.59 67.80 102.78 61.22 105.00 52.00
C 105.40 50.32 104.64 48.42 106.00 47.00
C 107.75 47.83 106.66 50.44 107.00 52.00
C 108.96 58.07 108.60 64.79 110.00 71.00
C 117.78 70.17 114.45 59.04 118.00 54.00
C 120.63 61.98 124.48 71.00 125.01 79.99 C 125.53 88.98 132.51 97.51 141.99 95.99 C 151.48 94.47 155.34 88.84 161.75 82.75 C 168.17 76.67 170.98 69.92 174.22 62.22 C 177.47 54.53 179.32 43.19 176.93 35.07 C 174.53 26.96 169.90 20.93 163.03 15.97 C 156.16 11.02 143.87 11.20 137.08 15.08 C 130.29 18.95 122.61 25.96 123.00 34.00 C 123.39 42.03 125.01 51.04 134.92 54.08 C 144.83 57.11 133.69 48.94 129.31 42.69 C 124.92 36.45 129.29 23.68 136.92 19.92 C 144.56 16.16 155.34 15.49 162.75 21.25 C 170.16 27.01 172.82 35.01 173.00 44.00 C 173.18 52.99 170.04 61.61 165.92 68.92 C 161.81 76.24 157.14 81.80 150.75 86.75 C 144.37 91.71 132.16 94.44 128.77 84.23 C 125.38 74.02 124.85 69.55 122.00 58.00 C 119.14 46.45 114.57 53.83 112.00 64.00
C 109.36 56.24 110.40 47.54 107.00 40.00
C 98.41 47.00 104.23 64.09 98.00 73.00
C 97.79 68.80 96.98 65.28 97.00 61.00 Z"/>
</g>
<g fill="None" fill-opacity="0.0" stroke="#F0F2F2" stroke-opacity="0.22" stroke-width="0.3"><path d="
M 162.00 50.00 
C 172.91 49.54 167.43 32.82 160.75 27.25 C 154.06 21.69 142.20 18.87 135.75 27.75 C 129.31 36.64 134.35 44.12 143.70 48.30 C 153.06 52.47 140.37 68.42 133.00 67.00
C 135.84 79.31 151.71 65.41 153.00 55.00 C 154.28 44.60 130.81 38.72 141.93 29.93 C 153.04 21.13 165.20 40.13 162.00 50.00
M 165.00 49.00 
C 163.17 40.29 160.76 23.17 146.00 27.00 C 131.24 30.83 139.31 41.34 148.75 47.25 C 158.20 53.16 143.93 72.78 135.00 71.00
C 140.61 68.71 157.84 51.35 143.75 46.25 C 129.66 41.15 133.99 25.66 147.01 24.01 C 160.02 22.36 169.00 38.73 165.00 49.00 Z"/>
</g>
<g fill="None" fill-opacity="0.0" stroke="#7D9092" stroke-opacity="0.91" stroke-width="0.3"><path d="
M 165.00 49.00 
C 169.00 38.73 160.02 22.36 147.01 24.01 C 133.99 25.66 129.66 41.15 143.75 46.25 C 157.84 51.35 140.61 68.71 135.00 71.00
C 143.93 72.78 158.20 53.16 148.75 47.25 C 139.31 41.34 131.24 30.83 146.00 27.00 C 160.76 23.17 163.17 40.29 165.00 49.00 Z"/>
</g>
<g fill="None" fill-opacity="0.0" stroke="#AAB4B4" stroke-opacity="0.75" stroke-width="0.3"><path d="
M 95.00 41.00 
C 95.01 39.67 95.00 38.33 95.00 37.00
C 95.00 37.00 95.25 36.25 95.00 36.00
C 95.00 36.00 94.00 35.96 94.00 36.00
C 94.18 37.71 94.82 39.83 95.00 41.00 Z"/>
</g>
<g fill="None" fill-opacity="0.0" stroke="#DEE2E3" stroke-opacity="0.37" stroke-width="0.3"><path d="
M 95.00 41.00 
C 94.97 47.65 96.26 54.90 97.00 61.00
C 97.01 59.67 97.00 58.33 97.00 57.00
C 97.00 50.15 97.56 42.86 95.00 37.00
C 95.00 38.33 95.01 39.67 95.00 41.00 Z"/>
</g>
<g fill="None" fill-opacity="0.0" stroke="#D1D9DA" stroke-opacity="0.49" stroke-width="0.3"><path d="
M 105.00 52.00 
C 105.31 51.76 106.69 51.76 107.00 52.00
C 106.66 50.44 107.75 47.83 106.00 47.00
C 104.64 48.42 105.40 50.32 105.00 52.00 Z"/>
</g>
<g fill="None" fill-opacity="0.0" stroke="#FFFFFF" stroke-opacity="0.03" stroke-width="0.3"><path d="
M 66.00 53.00 
C 67.92 51.16 69.23 53.03 71.00 53.00
C 68.34 52.47 68.37 49.25 66.00 53.00 Z"/>
</g>
<g fill="#000000" fill-opacity="0.00" stroke="None">
<path d="
M 0.00 101.00 
L 246.00 101.00
L 246.00 0.00
L 0.00 0.00
L 0.00 101.00
M 66.00 53.00 
C 68.37 49.25 68.34 52.47 71.00 53.00
C 74.39 52.95 69.53 45.86 75.70 42.70 C 81.87 39.53 82.46 49.91 83.00 54.00
C 87.74 46.30 80.74 26.00 95.00 28.00
C 93.93 30.71 97.81 34.02 95.00 36.00
C 95.25 36.25 95.00 37.00 95.00 37.00
C 97.56 42.86 97.00 50.15 97.00 57.00
C 97.16 58.05 98.18 61.11 99.00 62.00
C 98.08 55.77 102.26 51.40 101.00 45.00 C 99.74 38.60 107.84 35.53 109.32 41.68 C 110.80 47.83 109.88 52.05 113.00 57.00
C 113.02 44.13 123.14 48.09 123.78 57.22 C 124.42 66.35 128.00 72.42 128.99 81.01 C 129.98 89.59 141.93 90.88 147.69 86.69 C 153.46 82.51 158.64 77.51 162.25 71.25 C 165.86 65.00 169.55 58.45 170.93 50.93 C 172.30 43.41 170.64 32.95 165.75 27.25 C 160.85 21.56 153.06 16.90 145.00 19.00 C 136.94 21.10 131.60 23.92 129.08 33.08 C 126.55 42.23 135.34 43.88 140.75 50.25 C 146.15 56.63 134.87 59.13 129.30 52.70 C 123.74 46.26 119.77 40.62 121.33 32.33 C 122.89 24.04 126.45 18.65 133.25 14.25 C 140.04 9.85 149.33 9.11 156.67 11.33 C 164.02 13.54 168.63 16.99 173.75 23.25 C 178.88 29.51 178.94 38.88 179.00 47.00 C 179.06 55.12 176.07 63.52 172.25 70.25 C 168.43 76.98 166.12 81.64 160.25 87.25 C 154.37 92.85 149.38 96.26 141.00 97.00 C 132.62 97.74 125.29 93.61 124.01 84.99 C 122.73 76.38 120.65 69.08 118.00 61.00
C 116.65 64.00 115.82 76.11 109.78 72.22 C 103.73 68.33 109.04 60.15 106.00 55.00
C 102.21 63.40 106.26 68.57 103.00 78.00 C 99.74 87.43 92.24 79.12 94.00 71.00 C 95.76 62.88 89.72 55.16 91.00 47.00
C 89.91 53.24 88.02 60.14 88.00 67.00
C 79.04 73.24 79.34 61.18 77.00 56.00
C 78.41 60.19 74.47 69.55 69.78 66.22 C 65.09 62.90 66.23 57.12 66.00 53.00
M 162.00 50.00 
C 165.20 40.13 153.04 21.13 141.93 29.93 C 130.81 38.72 154.28 44.60 153.00 55.00 C 151.71 65.41 135.84 79.31 133.00 67.00
C 140.37 68.42 153.06 52.47 143.70 48.30 C 134.35 44.12 129.31 36.64 135.75 27.75 C 142.20 18.87 154.06 21.69 160.75 27.25 C 167.43 32.82 172.91 49.54 162.00 50.00 Z"/>
</g>
<g fill="#EFF1F1" fill-opacity="0.23" stroke="None">
<path d="
M 97.00 57.00 
C 97.00 58.33 97.01 59.67 97.00 61.00
C 96.98 65.28 97.79 68.80 98.00 73.00
C 104.23 64.09 98.41 47.00 107.00 40.00
C 110.40 47.54 109.36 56.24 112.00 64.00
C 114.57 53.83 119.14 46.45 122.00 58.00 C 124.85 69.55 125.38 74.02 128.77 84.23 C 132.16 94.44 144.37 91.71 150.75 86.75 C 157.14 81.80 161.81 76.24 165.92 68.92 C 170.04 61.61 173.18 52.99 173.00 44.00 C 172.82 35.01 170.16 27.01 162.75 21.25 C 155.34 15.49 144.56 16.16 136.92 19.92 C 129.29 23.68 124.92 36.45 129.31 42.69 C 133.69 48.94 144.83 57.11 134.92 54.08 C 125.01 51.04 123.39 42.03 123.00 34.00 C 122.61 25.96 130.29 18.95 137.08 15.08 C 143.87 11.20 156.16 11.02 163.03 15.97 C 169.90 20.93 174.53 26.96 176.93 35.07 C 179.32 43.19 177.47 54.53 174.22 62.22 C 170.98 69.92 168.17 76.67 161.75 82.75 C 155.34 88.84 151.48 94.47 141.99 95.99 C 132.51 97.51 125.53 88.98 125.01 79.99 C 124.48 71.00 120.63 61.98 118.00 54.00
C 114.45 59.04 117.78 70.17 110.00 71.00
C 108.60 64.79 108.96 58.07 107.00 52.00
C 106.69 51.76 105.31 51.76 105.00 52.00
C 102.78 61.22 104.59 67.80 101.07 77.07 C 97.55 86.35 94.28 69.21 95.00 62.00 C 95.72 54.79 91.27 42.77 92.00 35.00
C 86.63 44.67 91.22 50.87 87.00 62.00 C 82.79 73.14 78.67 55.26 78.00 49.00
C 74.49 52.30 77.60 61.49 73.69 64.69 C 69.79 67.90 65.91 54.72 68.00 53.00
C 71.37 54.30 69.80 59.10 72.00 61.00
C 76.03 58.88 71.82 45.15 77.25 44.25 C 82.68 43.35 81.01 58.14 83.00 61.00
C 87.63 53.20 86.55 39.95 89.00 30.00
C 93.13 28.73 94.84 32.53 94.00 36.00
C 94.00 35.96 95.00 36.00 95.00 36.00
C 97.81 34.02 93.93 30.71 95.00 28.00
C 80.74 26.00 87.74 46.30 83.00 54.00
C 82.46 49.91 81.87 39.53 75.70 42.70 C 69.53 45.86 74.39 52.95 71.00 53.00
C 69.23 53.03 67.92 51.16 66.00 53.00
C 66.23 57.12 65.09 62.90 69.78 66.22 C 74.47 69.55 78.41 60.19 77.00 56.00
C 79.34 61.18 79.04 73.24 88.00 67.00
C 88.02 60.14 89.91 53.24 91.00 47.00
C 89.72 55.16 95.76 62.88 94.00 71.00 C 92.24 79.12 99.74 87.43 103.00 78.00 C 106.26 68.57 102.21 63.40 106.00 55.00
C 109.04 60.15 103.73 68.33 109.78 72.22 C 115.82 76.11 116.65 64.00 118.00 61.00
C 120.65 69.08 122.73 76.38 124.01 84.99 C 125.29 93.61 132.62 97.74 141.00 97.00 C 149.38 96.26 154.37 92.85 160.25 87.25 C 166.12 81.64 168.43 76.98 172.25 70.25 C 176.07 63.52 179.06 55.12 179.00 47.00 C 178.94 38.88 178.88 29.51 173.75 23.25 C 168.63 16.99 164.02 13.54 156.67 11.33 C 149.33 9.11 140.04 9.85 133.25 14.25 C 126.45 18.65 122.89 24.04 121.33 32.33 C 119.77 40.62 123.74 46.26 129.30 52.70 C 134.87 59.13 146.15 56.63 140.75 50.25 C 135.34 43.88 126.55 42.23 129.08 33.08 C 131.60 23.92 136.94 21.10 145.00 19.00 C 153.06 16.90 160.85 21.56 165.75 27.25 C 170.64 32.95 172.30 43.41 170.93 50.93 C 169.55 58.45 165.86 65.00 162.25 71.25 C 158.64 77.51 153.46 82.51 147.69 86.69 C 141.93 90.88 129.98 89.59 128.99 81.01 C 128.00 72.42 124.42 66.35 123.78 57.22 C 123.14 48.09 113.02 44.13 113.00 57.00
C 109.88 52.05 110.80 47.83 109.32 41.68 C 107.84 35.53 99.74 38.60 101.00 45.00 C 102.26 51.40 98.08 55.77 99.00 62.00
C 98.18 61.11 97.16 58.05 97.00 57.00 Z"/>
</g>
<g fill="#778D8F" fill-opacity="0.93" stroke="None">
<path d="
M 97.00 61.00 
C 96.26 54.90 94.97 47.65 95.00 41.00
C 94.82 39.83 94.18 37.71 94.00 36.00
C 94.84 32.53 93.13 28.73 89.00 30.00
C 86.55 39.95 87.63 53.20 83.00 61.00
C 81.01 58.14 82.68 43.35 77.25 44.25 C 71.82 45.15 76.03 58.88 72.00 61.00
C 69.80 59.10 71.37 54.30 68.00 53.00
C 65.91 54.72 69.79 67.90 73.69 64.69 C 77.60 61.49 74.49 52.30 78.00 49.00
C 78.67 55.26 82.79 73.14 87.00 62.00 C 91.22 50.87 86.63 44.67 92.00 35.00
C 91.27 42.77 95.72 54.79 95.00 62.00 C 94.28 69.21 97.55 86.35 101.07 77.07 C 104.59 67.80 102.78 61.22 105.00 52.00
C 105.40 50.32 104.64 48.42 106.00 47.00
C 107.75 47.83 106.66 50.44 107.00 52.00
C 108.96 58.07 108.60 64.79 110.00 71.00
C 117.78 70.17 114.45 59.04 118.00 54.00
C 120.63 61.98 124.48 71.00 125.01 79.99 C 125.53 88.98 132.51 97.51 141.99 95.99 C 151.48 94.47 155.34 88.84 161.75 82.75 C 168.17 76.67 170.98 69.92 174.22 62.22 C 177.47 54.53 179.32 43.19 176.93 35.07 C 174.53 26.96 169.90 20.93 163.03 15.97 C 156.16 11.02 143.87 11.20 137.08 15.08 C 130.29 18.95 122.61 25.96 123.00 34.00 C 123.39 42.03 125.01 51.04 134.92 54.08 C 144.83 57.11 133.69 48.94 129.31 42.69 C 124.92 36.45 129.29 23.68 136.92 19.92 C 144.56 16.16 155.34 15.49 162.75 21.25 C 170.16 27.01 172.82 35.01 173.00 44.00 C 173.18 52.99 170.04 61.61 165.92 68.92 C 161.81 76.24 157.14 81.80 150.75 86.75 C 144.37 91.71 132.16 94.44 128.77 84.23 C 125.38 74.02 124.85 69.55 122.00 58.00 C 119.14 46.45 114.57 53.83 112.00 64.00
C 109.36 56.24 110.40 47.54 107.00 40.00
C 98.41 47.00 104.23 64.09 98.00 73.00
C 97.79 68.80 96.98 65.28 97.00 61.00 Z"/>
</g>
<g fill="#F0F2F2" fill-opacity="0.22" stroke="None">
<path d="
M 162.00 50.00 
C 172.91 49.54 167.43 32.82 160.75 27.25 C 154.06 21.69 142.20 18.87 135.75 27.75 C 129.31 36.64 134.35 44.12 143.70 48.30 C 153.06 52.47 140.37 68.42 133.00 67.00
C 135.84 79.31 151.71 65.41 153.00 55.00 C 154.28 44.60 130.81 38.72 141.93 29.93 C 153.04 21.13 165.20 40.13 162.00 50.00
M 165.00 49.00 
C 163.17 40.29 160.76 23.17 146.00 27.00 C 131.24 30.83 139.31 41.34 148.75 47.25 C 158.20 53.16 143.93 72.78 135.00 71.00
C 140.61 68.71 157.84 51.35 143.75 46.25 C 129.66 41.15 133.99 25.66 147.01 24.01 C 160.02 22.36 169.00 38.73 165.00 49.00 Z"/>
</g>
<g fill="#7D9092" fill-opacity="0.91" stroke="None">
<path d="
M 165.00 49.00 
C 169.00 38.73 160.02 22.36 147.01 24.01 C 133.99 25.66 129.66 41.15 143.75 46.25 C 157.84 51.35 140.61 68.71 135.00 71.00
C 143.93 72.78 158.20 53.16 148.75 47.25 C 139.31 41.34 131.24 30.83 146.00 27.00 C 160.76 23.17 163.17 40.29 165.00 49.00 Z"/>
</g>
<g fill="#AAB4B4" fill-opacity="0.75" stroke="None">
<path d="
M 95.00 41.00 
C 95.01 39.67 95.00 38.33 95.00 37.00
C 95.00 37.00 95.25 36.25 95.00 36.00
C 95.00 36.00 94.00 35.96 94.00 36.00
C 94.18 37.71 94.82 39.83 95.00 41.00 Z"/>
</g>
<g fill="#DEE2E3" fill-opacity="0.37" stroke="None">
<path d="
M 95.00 41.00 
C 94.97 47.65 96.26 54.90 97.00 61.00
C 97.01 59.67 97.00 58.33 97.00 57.00
C 97.00 50.15 97.56 42.86 95.00 37.00
C 95.00 38.33 95.01 39.67 95.00 41.00 Z"/>
</g>
<g fill="#D1D9DA" fill-opacity="0.49" stroke="None">
<path d="
M 105.00 52.00 
C 105.31 51.76 106.69 51.76 107.00 52.00
C 106.66 50.44 107.75 47.83 106.00 47.00
C 104.64 48.42 105.40 50.32 105.00 52.00 Z"/>
</g>
<g fill="#FFFFFF" fill-opacity="0.03" stroke="None">
<path d="
M 66.00 53.00 
C 67.92 51.16 69.23 53.03 71.00 53.00
C 68.34 52.47 68.37 49.25 66.00 53.00 Z"/>
</g>
</svg>